# xmcd
#
# Track frame offsets:
#	150
#	22252
#	39432
#	53507
#	70640
#	84682
#	98632
#	117202
#	133407
#	160187
#	182170
#	199072
#	216460
#	231517
#	263962
#	275642
#	294442
#
# Disc length: 4124 seconds
#
# Revision: 0
# Processed by: cddbd v1.5.1PL0 Copyright (c) Steve Scherf et al.
# Submitted via: dBpowerAMP V4.0
#
DISCID=04101a11
DTITLE=Nobody's Business Bluesband - Live
DYEAR=1994
DGENRE=Blues
TTITLE0=Messin' with the kid
TTITLE1=Give me one more day
TTITLE2=Green Onions
TTITLE3=Double Trouble
TTITLE4=Mary had a little lamb
TTITLE5=Takin' care of business
TTITLE6=What you have done
TTITLE7=The blues ain't nothing
TTITLE8=The thrill is gone
TTITLE9=Life in the jungle
TTITLE10=Tears came falling
TTITLE11=Hideaway
TTITLE12=The dealer
TTITLE13=Life is hard
TTITLE14=Looking back
TTITLE15=Watch your step
TTITLE16=In the midnight hour
EXTD=This is a live recording from a norwegian bluesband.
EXTT0=
EXTT1=
EXTT2=
EXTT3=
EXTT4=
EXTT5=
EXTT6=
EXTT7=
EXTT8=
EXTT9=
EXTT10=
EXTT11=
EXTT12=
EXTT13=
EXTT14=
EXTT15=
EXTT16=
PLAYORDER=
